<svg id="Layer_1" data-name="Layer 1" xmlns="http://www.w3.org/2000/svg" viewBox="0 0 304.26 305.17"><title>logo</title><path d="M141.66,6.22c-30,4.4-49.5,11.4-70.3,25.2-34,22.6-58.8,60.3-65.6,99.7-2.3,13.3-3.1,12.1,8.7,12.8a109.06,109.06,0,0,1,67.8,29.4,109.49,109.49,0,0,1,33.6,72.3c.9,16.8-2.7,36.8-9.2,50.2a34.85,34.85,0,0,0-2.5,5.9c0,1.2,15.1,5.7,25.4,7.6,12.7,2.4,40.7,2.3,53.6,0a154.47,154.47,0,0,0,123.6-123.7c2.5-13.1,2.5-40.9,0-54a154.45,154.45,0,0,0-82.5-109.9c-10.6-5.4-29-11.5-40.6-13.6C175,6.52,147.86,5.32,141.66,6.22Z" transform="translate(-4.37 -5.91)"/><path d="M11.36,188.32c-2,.4-2.2.9-1.7,3.6,1.4,6.6,6.8,21.5,11.1,30.7,7.6,16,23.5,37.6,34.2,46.5,3.1,2.6,3.4,2.6,5.1,1.1,3.1-2.8,7.9-12.8,9.6-19.7,6.4-27.4-10.5-55-37.6-61.4C26.06,187.72,16.46,187.32,11.36,188.32Z" transform="translate(-4.37 -5.91)"/></svg>